<svg id="svg" version="1.1" width="400" height="400" viewBox="0 0 400 400" xmlns="http://www.w3.org/2000/svg" xmlns:xlink="http://www.w3.org/1999/xlink" ><g id="svgg"><path id="path0" d="M0.000 200.000 L 0.000 400.000 200.000 400.000 L 400.000 400.000 400.000 200.000 L 400.000 0.000 200.000 0.000 L 0.000 0.000 0.000 200.000 M203.131 6.641 C 204.247 8.037,207.163 11.904,209.611 15.234 C 212.058 18.564,218.372 27.090,223.642 34.180 C 228.912 41.270,235.827 50.586,239.008 54.883 C 242.189 59.180,266.091 91.395,292.123 126.473 C 325.973 172.085,339.453 190.534,339.453 191.248 C 339.453 191.837,338.437 193.714,336.972 195.830 C 334.206 199.827,331.283 204.106,325.584 212.500 C 323.469 215.615,320.481 220.010,318.945 222.266 C 317.408 224.521,314.658 228.564,312.834 231.250 C 311.009 233.936,308.137 238.154,306.449 240.625 C 302.736 246.063,299.070 251.446,293.945 258.984 C 291.827 262.100,288.952 266.318,287.556 268.359 C 286.161 270.400,283.353 274.531,281.316 277.539 C 275.288 286.440,264.744 301.912,263.080 304.297 C 262.406 305.264,259.597 309.395,256.839 313.477 C 254.081 317.559,250.916 322.217,249.806 323.828 C 248.695 325.439,246.058 329.307,243.945 332.422 C 241.833 335.537,239.193 339.404,238.080 341.016 C 236.966 342.627,234.154 346.758,231.831 350.195 C 226.778 357.670,201.104 395.446,200.936 395.652 C 200.225 396.524,198.566 394.599,193.991 387.591 C 191.222 383.352,187.043 377.070,184.704 373.633 C 182.364 370.195,179.260 365.625,177.805 363.477 C 176.351 361.328,173.069 356.494,170.512 352.734 C 167.955 348.975,164.616 344.053,163.093 341.797 C 158.526 335.034,151.315 324.408,129.559 292.383 C 118.174 275.625,107.013 259.189,104.755 255.859 C 96.862 244.217,93.207 238.840,90.816 235.352 C 89.490 233.418,86.150 228.496,83.392 224.414 C 80.634 220.332,76.883 214.795,75.056 212.109 C 63.185 194.660,61.275 191.671,61.483 190.864 C 61.600 190.410,64.164 186.699,67.181 182.617 C 70.198 178.535,74.729 172.407,77.251 169.000 C 79.773 165.592,82.715 161.599,83.789 160.126 C 84.863 158.653,93.389 147.123,102.734 134.503 C 123.933 105.878,128.235 100.065,133.477 92.969 C 138.012 86.830,140.688 83.213,160.758 56.108 C 177.412 33.616,185.630 22.475,192.349 13.281 C 200.607 1.981,199.802 2.477,203.131 6.641 " stroke="none" fill="#ffffff" fill-rule="evenodd"></path><path id="path1" d="M333.302 197.003 C 332.086 198.081,305.511 219.261,289.893 231.599 C 287.610 233.403,284.849 235.291,283.758 235.797 L 281.774 236.715 199.408 236.721 L 117.042 236.726 116.019 235.746 C 114.676 234.459,113.734 234.401,114.557 235.657 C 115.148 236.559,122.310 249.824,125.886 256.641 C 126.957 258.682,128.453 261.494,129.210 262.891 C 129.968 264.287,131.412 267.012,132.420 268.945 C 133.428 270.879,135.011 273.867,135.939 275.586 C 137.840 279.110,169.227 338.365,175.872 350.977 C 178.250 355.488,181.461 361.553,183.009 364.453 C 184.557 367.354,187.900 373.682,190.439 378.516 C 195.202 387.589,199.466 394.922,199.977 394.922 C 200.485 394.922,201.387 393.723,205.926 387.013 C 215.951 372.196,232.677 347.621,263.229 302.823 C 268.464 295.147,275.484 284.824,278.830 279.883 C 289.731 263.782,296.568 253.702,302.930 244.346 C 312.597 230.129,321.174 217.494,324.946 211.914 C 326.834 209.121,329.751 204.814,331.427 202.344 C 335.413 196.471,336.096 194.526,333.302 197.003 " stroke="none" fill="#8c62d0" fill-rule="evenodd"></path><path id="path2" d="M203.126 10.389 C 203.126 10.583,204.906 15.576,207.080 21.484 C 209.254 27.393,211.645 33.896,212.393 35.938 C 213.142 37.979,214.182 40.791,214.705 42.188 C 215.228 43.584,215.898 45.430,216.192 46.289 C 216.862 48.244,219.124 54.397,220.500 58.008 C 221.073 59.512,221.702 61.270,221.898 61.914 C 222.094 62.559,222.433 63.438,222.651 63.867 C 223.025 64.602,225.214 70.570,226.376 74.023 C 226.666 74.883,227.273 76.553,227.727 77.734 C 228.181 78.916,230.556 85.332,233.006 91.992 C 235.456 98.652,237.832 105.068,238.287 106.250 C 238.742 107.432,239.355 109.102,239.650 109.961 C 240.529 112.523,241.688 115.683,242.586 117.969 C 243.050 119.150,243.671 120.820,243.965 121.680 C 244.259 122.539,244.961 124.473,245.525 125.977 C 246.088 127.480,246.787 129.414,247.077 130.273 C 247.368 131.133,247.944 132.715,248.359 133.789 C 249.250 136.099,257.257 157.779,259.395 163.672 C 260.214 165.928,261.351 169.004,261.922 170.508 C 262.494 172.012,263.112 173.682,263.297 174.219 C 263.482 174.756,264.059 176.338,264.581 177.734 C 269.881 191.933,272.213 198.258,275.023 206.055 C 275.410 207.129,276.103 208.975,276.563 210.156 C 277.022 211.338,277.714 213.184,278.099 214.258 C 279.757 218.883,284.331 231.177,284.893 232.520 C 285.775 234.623,286.345 234.437,291.406 230.401 C 293.877 228.430,303.984 220.407,313.867 212.571 C 333.155 197.277,333.998 196.563,336.380 193.483 C 338.180 191.155,338.205 191.284,335.189 187.260 C 334.204 185.946,331.471 182.254,329.115 179.056 C 326.759 175.859,320.711 167.705,315.675 160.938 C 307.209 149.559,303.045 143.951,297.838 136.914 C 289.950 126.255,271.243 101.034,265.821 93.750 C 263.982 91.279,260.338 86.357,257.723 82.813 C 255.108 79.268,249.433 71.621,245.110 65.820 C 237.865 56.097,232.676 49.065,231.244 47.027 C 230.925 46.573,229.153 44.200,227.307 41.753 C 225.460 39.307,221.342 33.789,218.154 29.492 C 204.465 11.036,203.123 9.331,203.126 10.389 " stroke="none" fill="#ff356e" fill-rule="evenodd"></path><path id="path3" d="M63.532 195.020 C 63.878 195.590,70.289 205.096,75.058 212.109 C 76.883 214.795,80.634 220.332,83.392 224.414 C 86.150 228.496,89.490 233.418,90.816 235.352 C 93.207 238.840,96.862 244.217,104.755 255.859 C 107.013 259.189,118.174 275.625,129.559 292.383 C 151.280 324.356,158.509 335.009,163.093 341.797 C 165.890 345.938,171.574 354.312,177.676 363.281 C 183.353 371.625,188.186 378.787,193.822 387.207 C 199.371 395.496,200.026 396.154,201.222 394.629 C 201.707 394.010,201.693 393.996,201.079 394.477 C 199.711 395.549,198.195 393.275,190.435 378.516 C 188.120 374.111,184.777 367.783,183.008 364.453 C 181.238 361.123,177.936 354.883,175.669 350.586 C 168.142 336.319,137.652 278.763,135.939 275.586 C 135.011 273.867,133.428 270.879,132.420 268.945 C 131.412 267.012,129.968 264.287,129.210 262.891 C 128.453 261.494,126.957 258.682,125.886 256.641 C 123.260 251.636,115.491 237.201,114.638 235.742 C 114.262 235.098,110.783 232.021,106.908 228.906 C 82.396 209.200,76.907 204.786,71.666 200.567 C 64.245 194.592,62.585 193.460,63.532 195.020 M262.422 304.131 C 255.512 314.139,231.015 350.031,220.184 366.016 C 218.364 368.701,213.957 375.179,210.391 380.412 C 206.824 385.644,203.906 390.011,203.906 390.117 C 203.906 390.223,203.543 390.820,203.098 391.444 C 202.654 392.068,202.374 392.578,202.476 392.578 C 202.860 392.578,220.480 366.935,241.463 335.838 C 261.805 305.691,265.614 300.000,265.453 300.000 C 265.354 300.000,263.990 301.859,262.422 304.131 " stroke="none" fill="#43a8fc" fill-rule="evenodd"></path><path id="path4" d="M198.413 7.470 C 197.376 9.525,195.125 15.281,192.550 22.461 C 191.626 25.039,189.221 31.584,188.029 34.766 C 187.506 36.162,186.843 38.008,186.557 38.867 C 186.271 39.727,184.669 44.121,182.997 48.633 C 181.325 53.145,179.646 57.715,179.264 58.789 C 178.883 59.863,178.196 61.709,177.739 62.891 C 177.282 64.072,176.315 66.709,175.591 68.750 C 174.867 70.791,173.014 75.889,171.473 80.078 C 167.495 90.895,167.122 91.899,166.755 92.773 C 166.575 93.203,166.179 94.258,165.876 95.117 C 165.024 97.528,162.621 104.207,161.588 107.031 C 161.077 108.428,160.182 110.889,159.598 112.500 C 158.437 115.705,157.616 117.900,156.020 122.070 C 155.444 123.574,154.317 126.650,153.515 128.906 C 151.879 133.509,133.650 183.162,132.147 187.109 C 131.616 188.506,130.944 190.352,130.654 191.211 C 130.365 192.070,129.661 194.004,129.091 195.508 C 128.521 197.012,127.903 198.682,127.719 199.219 C 127.534 199.756,126.958 201.338,126.438 202.734 C 123.911 209.525,116.588 229.415,115.738 231.795 L 114.777 234.489 115.896 235.607 L 117.014 236.726 199.425 236.724 L 281.836 236.722 284.352 235.487 C 286.492 234.437,286.748 234.208,286.061 233.954 C 285.617 233.789,285.074 233.158,284.853 232.550 C 284.632 231.943,283.180 228.018,281.625 223.828 C 280.071 219.639,278.484 215.332,278.099 214.258 C 277.714 213.184,277.022 211.338,276.563 210.156 C 276.103 208.975,275.410 207.129,275.023 206.055 C 272.213 198.258,269.881 191.933,264.581 177.734 C 264.059 176.338,263.482 174.756,263.297 174.219 C 263.112 173.682,262.494 172.012,261.922 170.508 C 261.351 169.004,260.214 165.928,259.395 163.672 C 257.257 157.779,249.250 136.099,248.359 133.789 C 247.944 132.715,247.368 131.133,247.077 130.273 C 246.787 129.414,246.088 127.480,245.525 125.977 C 244.961 124.473,244.259 122.539,243.965 121.680 C 243.671 120.820,243.050 119.150,242.586 117.969 C 241.688 115.683,240.529 112.523,239.650 109.961 C 239.355 109.102,238.742 107.432,238.287 106.250 C 237.832 105.068,235.456 98.652,233.006 91.992 C 230.556 85.332,228.181 78.916,227.727 77.734 C 227.273 76.553,226.666 74.883,226.376 74.023 C 225.214 70.570,223.025 64.602,222.651 63.867 C 222.433 63.438,222.094 62.559,221.898 61.914 C 221.702 61.270,221.073 59.512,220.500 58.008 C 219.124 54.397,216.862 48.244,216.192 46.289 C 215.898 45.430,215.228 43.584,214.705 42.188 C 214.182 40.791,213.142 37.979,212.393 35.938 C 211.645 33.896,209.254 27.393,207.080 21.484 C 204.906 15.576,203.126 10.583,203.126 10.389 C 203.123 9.331,204.465 11.036,218.154 29.492 C 221.342 33.789,225.460 39.307,227.307 41.753 C 229.153 44.200,230.925 46.573,231.244 47.027 C 232.676 49.065,237.865 56.097,245.110 65.820 C 249.433 71.621,255.108 79.268,257.723 82.813 C 260.338 86.357,263.982 91.279,265.821 93.750 C 271.243 101.034,289.950 126.255,297.838 136.914 C 303.045 143.951,307.209 149.559,315.675 160.938 C 320.711 167.705,326.759 175.859,329.115 179.056 C 331.471 182.254,334.204 185.946,335.189 187.260 C 338.237 191.327,338.207 191.145,336.240 193.686 C 335.214 195.011,334.590 196.191,334.684 196.627 C 334.844 197.372,338.669 192.129,338.671 191.162 C 338.671 190.921,335.220 186.087,331.002 180.420 C 326.784 174.754,321.202 167.252,318.600 163.750 C 315.997 160.248,312.529 155.590,310.894 153.399 C 309.259 151.207,305.646 146.338,302.866 142.578 C 297.891 135.849,293.192 129.521,277.868 108.912 C 273.605 103.179,267.480 94.930,264.258 90.581 C 253.368 75.884,251.385 73.210,243.164 62.129 C 229.014 43.056,224.618 37.136,218.934 29.492 C 215.898 25.410,211.091 18.942,208.252 15.118 C 199.914 3.890,200.134 4.061,198.413 7.470 " stroke="none" fill="#ff6bbe" fill-rule="evenodd"></path><path id="path5" d="M198.791 4.752 C 198.152 5.469,195.253 9.307,192.349 13.281 C 185.630 22.475,177.412 33.616,160.758 56.108 C 140.688 83.213,138.012 86.830,133.477 92.969 C 128.235 100.065,123.933 105.878,102.734 134.503 C 93.389 147.123,84.863 158.653,83.789 160.126 C 82.715 161.599,79.773 165.592,77.251 169.000 C 59.431 193.080,60.728 191.029,62.102 192.958 C 62.570 193.615,63.437 194.403,64.031 194.710 C 64.624 195.017,67.994 197.595,71.519 200.440 C 75.045 203.285,82.764 209.496,88.672 214.242 C 94.580 218.989,102.627 225.468,106.554 228.640 C 115.311 235.715,114.484 235.415,115.697 231.948 C 116.528 229.575,122.954 212.097,126.438 202.734 C 126.958 201.338,127.534 199.756,127.719 199.219 C 127.903 198.682,128.521 197.012,129.091 195.508 C 129.661 194.004,130.365 192.070,130.654 191.211 C 130.944 190.352,131.616 188.506,132.147 187.109 C 133.650 183.162,151.879 133.509,153.515 128.906 C 154.317 126.650,155.444 123.574,156.020 122.070 C 157.616 117.900,158.437 115.705,159.598 112.500 C 160.182 110.889,161.077 108.428,161.588 107.031 C 162.621 104.207,165.024 97.528,165.876 95.117 C 166.179 94.258,166.575 93.203,166.755 92.773 C 167.122 91.899,167.495 90.895,171.473 80.078 C 173.014 75.889,174.867 70.791,175.591 68.750 C 176.315 66.709,177.282 64.072,177.739 62.891 C 178.196 61.709,178.883 59.863,179.264 58.789 C 179.646 57.715,181.325 53.145,182.997 48.633 C 184.669 44.121,186.271 39.727,186.557 38.867 C 186.843 38.008,187.506 36.162,188.029 34.766 C 189.221 31.584,191.626 25.039,192.550 22.461 C 196.533 11.353,199.208 5.078,199.960 5.078 C 200.555 5.078,202.948 7.976,208.252 15.118 C 211.091 18.942,215.898 25.410,218.934 29.492 C 224.618 37.136,229.014 43.056,243.164 62.129 C 251.385 73.210,253.368 75.884,264.258 90.581 C 267.480 94.930,273.605 103.179,277.868 108.912 C 293.192 129.521,297.891 135.849,302.866 142.578 C 305.646 146.338,309.259 151.207,310.894 153.399 C 312.529 155.590,315.997 160.248,318.600 163.750 C 321.202 167.252,326.794 174.768,331.026 180.453 C 335.741 186.786,338.655 191.037,338.552 191.431 C 338.404 191.999,335.969 195.657,323.847 213.526 C 322.225 215.917,318.295 221.718,315.114 226.417 C 311.932 231.116,306.452 239.180,302.936 244.336 C 290.719 262.249,284.961 270.899,285.059 271.191 C 285.112 271.352,284.975 271.484,284.752 271.484 C 284.530 271.484,283.960 272.144,283.484 272.949 C 283.009 273.755,282.694 274.414,282.783 274.414 C 282.873 274.414,282.389 275.025,281.708 275.771 C 280.536 277.053,280.337 277.434,280.566 277.957 C 280.620 278.080,280.356 278.352,279.980 278.563 C 279.604 278.773,279.297 279.181,279.297 279.470 C 279.297 279.758,279.022 280.100,278.686 280.229 C 278.350 280.358,278.174 280.622,278.293 280.816 C 278.413 281.010,278.237 281.273,277.903 281.402 C 277.568 281.530,277.392 281.794,277.512 281.988 C 277.632 282.181,277.456 282.445,277.121 282.573 C 276.787 282.702,276.611 282.966,276.731 283.159 C 276.851 283.353,276.675 283.617,276.340 283.745 C 276.006 283.874,275.830 284.137,275.950 284.331 C 276.069 284.525,275.894 284.789,275.559 284.917 C 275.224 285.046,275.061 285.329,275.195 285.547 C 275.330 285.765,275.166 286.048,274.832 286.177 C 274.497 286.305,274.309 286.549,274.414 286.719 C 274.519 286.889,274.331 287.133,273.996 287.261 C 273.662 287.389,273.498 287.673,273.633 287.891 C 273.767 288.109,273.604 288.392,273.269 288.520 C 272.935 288.649,272.753 288.902,272.865 289.084 C 272.977 289.265,272.707 289.607,272.266 289.844 C 271.824 290.080,271.554 290.422,271.667 290.604 C 271.779 290.785,271.597 291.039,271.262 291.167 C 270.927 291.296,270.756 291.567,270.882 291.770 C 271.007 291.973,270.855 292.282,270.544 292.456 C 269.992 292.765,269.922 292.914,269.922 293.773 C 269.922 294.001,269.719 294.061,269.471 293.908 C 269.201 293.741,269.126 293.800,269.284 294.056 C 269.429 294.291,269.293 294.626,268.981 294.800 C 268.430 295.109,268.359 295.258,268.359 296.117 C 268.359 296.344,268.156 296.405,267.908 296.252 C 267.638 296.085,267.563 296.144,267.721 296.400 C 267.866 296.635,267.730 296.970,267.419 297.144 C 267.107 297.318,266.851 297.549,266.850 297.656 C 266.841 298.358,266.257 299.172,265.914 298.961 C 265.689 298.821,265.618 298.892,265.758 299.117 C 265.897 299.343,265.747 299.629,265.424 299.753 C 265.101 299.877,264.859 300.115,264.886 300.282 C 265.016 301.072,264.805 301.585,264.443 301.361 C 264.223 301.225,264.068 301.259,264.099 301.436 C 264.228 302.175,264.040 302.767,263.737 302.579 C 263.558 302.469,263.411 302.642,263.411 302.965 C 263.411 303.826,263.849 303.276,267.721 297.559 C 269.576 294.819,272.561 290.425,274.353 287.793 C 276.146 285.161,279.279 280.547,281.316 277.539 C 283.353 274.531,286.161 270.400,287.556 268.359 C 288.952 266.318,291.827 262.100,293.945 258.984 C 299.070 251.446,302.736 246.063,306.449 240.625 C 308.137 238.154,311.009 233.936,312.834 231.250 C 314.658 228.564,317.408 224.521,318.945 222.266 C 320.481 220.010,323.469 215.615,325.584 212.500 C 331.283 204.106,334.206 199.827,336.972 195.830 C 338.437 193.714,339.453 191.837,339.453 191.248 C 339.453 190.534,325.973 172.085,292.123 126.473 C 266.091 91.395,242.189 59.180,239.008 54.883 C 235.827 50.586,228.912 41.270,223.642 34.180 C 218.372 27.090,212.058 18.564,209.611 15.234 C 200.649 3.041,200.470 2.867,198.791 4.752 M262.537 303.780 C 262.665 304.519,262.478 305.111,262.174 304.923 C 261.995 304.812,261.849 304.970,261.849 305.273 C 261.849 305.958,262.366 305.667,262.890 304.689 C 263.156 304.192,263.153 303.873,262.882 303.706 C 262.661 303.569,262.506 303.602,262.537 303.780 M259.962 307.749 C 260.070 307.857,259.891 308.355,259.563 308.856 C 258.716 310.148,259.164 309.987,260.110 308.659 C 260.726 307.794,260.774 307.552,260.332 307.552 C 260.020 307.552,259.854 307.641,259.962 307.749 M202.688 391.676 C 202.663 391.850,202.663 392.124,202.688 392.285 C 202.714 392.446,202.548 392.578,202.321 392.578 C 202.093 392.578,202.004 392.735,202.122 392.926 C 202.240 393.117,201.893 393.565,201.351 393.920 C 200.809 394.275,200.461 394.720,200.578 394.909 C 200.695 395.099,200.481 395.334,200.102 395.433 C 199.519 395.585,199.533 395.618,200.195 395.651 C 201.090 395.695,203.757 391.992,203.116 391.596 C 202.906 391.466,202.714 391.502,202.688 391.676 " stroke="none" fill="#ff9e72" fill-rule="evenodd"></path></g></svg>